<svg width="297" height="109" viewBox="0 0 297 109" fill="none" xmlns="http://www.w3.org/2000/svg">
<path d="M100.902 108.8C100.602 108.8 100.302 108.75 100.002 108.65C99.7016 108.65 99.4016 108.6 99.1016 108.5C95.6016 107.4 93.1016 105.25 91.6016 102.05C90.1016 98.85 89.3516 95 89.3516 90.5C89.3516 85.8 90.0016 80.6 91.3016 74.9C92.6016 69.2 94.3016 63.4 96.4016 57.5C98.5016 51.5 100.702 45.8 103.002 40.4C105.402 34.9 107.702 30 109.902 25.7C112.102 21.3 113.952 17.85 115.452 15.35C113.852 16.75 111.452 19.05 108.252 22.25C105.052 25.35 101.502 29.05 97.6016 33.35C93.7016 37.65 90.0016 42.25 86.5016 47.15C83.0016 52.05 80.1516 57 77.9516 62C77.4516 63.3 76.7016 65.45 75.7016 68.45C74.7016 71.35 73.8016 74.5 73.0016 77.9C72.3016 81.3 71.9516 84.3 71.9516 86.9C71.9516 88.9 72.2516 90.45 72.8516 91.55C72.8516 91.65 72.8516 91.75 72.8516 91.85C72.9516 91.85 73.0016 91.9 73.0016 92C73.0016 93 71.8016 93.5 69.4016 93.5C64.8016 93.5 61.5516 92.15 59.6516 89.45C57.8516 86.65 56.9516 83.1 56.9516 78.8C56.9516 73.7 57.9016 67.95 59.8016 61.55C61.8016 55.05 64.0516 48.85 66.5516 42.95C67.9516 39.65 69.5516 36.3 71.3516 32.9C73.1516 29.4 74.8016 26.3 76.3016 23.6C77.9016 20.8 79.0516 18.85 79.7516 17.75C76.5516 20.65 72.9016 24.25 68.8016 28.55C64.8016 32.75 60.7516 37.45 56.6516 42.65C52.5516 47.75 48.7516 53.05 45.2516 58.55C41.7516 63.95 38.9516 69.35 36.8516 74.75C34.7516 80.05 33.7016 85.05 33.7016 89.75C33.7016 91.95 34.2516 93.7 35.3516 95C35.5516 95.4 35.6516 95.6 35.6516 95.6C35.6516 95.9 35.1516 96.05 34.1516 96.05C29.2516 96.05 25.5516 95.2 23.0516 93.5C20.6516 91.7 19.4516 88.8 19.4516 84.8C19.4516 84.3 19.4516 83.8 19.4516 83.3C19.5516 82.8 19.6516 82.25 19.7516 81.65C20.0516 79.15 20.7516 75.85 21.8516 71.75C23.0516 67.55 24.6016 62.9 26.5016 57.8C28.5016 52.6 30.7516 47.3 33.2516 41.9C35.8516 36.4 38.6516 31.15 41.6516 26.15C41.9516 25.65 42.7016 24.5 43.9016 22.7C45.2016 20.9 46.4016 19 47.5016 17C48.7016 15 49.3016 13.55 49.3016 12.65C49.3016 11.75 48.7016 11.55 47.5016 12.05C45.8016 12.65 43.8016 13.95 41.5016 15.95C39.2016 17.95 36.7016 20.25 34.0016 22.85C31.3016 25.45 28.4516 28 25.4516 30.5C22.5516 32.9 19.5516 34.95 16.4516 36.65C13.4516 38.25 10.5016 39.05 7.60156 39.05C6.90156 39.05 6.15156 39 5.35156 38.9C4.65156 38.8 3.90156 38.6 3.10156 38.3C1.40156 37.7 0.551562 36.2 0.551562 33.8C0.551562 31.5 1.20156 28.8 2.50156 25.7C3.90156 22.5 5.60156 19.45 7.60156 16.55C8.10156 15.75 8.70156 15.2 9.40156 14.9C10.1016 14.5 10.6516 14.3 11.0516 14.3C11.8516 14.3 12.2516 14.65 12.2516 15.35C12.2516 15.65 12.1016 16.05 11.8016 16.55C11.7016 16.95 11.5516 17.3 11.3516 17.6C11.2516 17.9 11.2016 18.15 11.2016 18.35C11.2016 19.05 11.5516 19.55 12.2516 19.85C12.9516 20.05 13.7016 20.15 14.5016 20.15C16.6016 20.15 19.3516 19.45 22.7516 18.05C26.1516 16.65 29.8016 14.95 33.7016 12.95C37.7016 10.85 41.6516 8.8 45.5516 6.8C49.5516 4.8 53.2516 3.25 56.6516 2.15C60.0516 0.949995 62.8516 0.549994 65.0516 0.949995C66.7516 1.35 68.2516 2.55 69.5516 4.54999C70.9516 6.55 71.8516 8.3 72.2516 9.8C72.4516 10.4 72.1516 11.4 71.3516 12.8C70.5516 14.2 69.5016 15.75 68.2016 17.45C67.0016 19.15 65.8016 20.75 64.6016 22.25C63.4016 23.75 62.5016 24.9 61.9016 25.7C60.6016 27.3 59.1016 29.25 57.4016 31.55C55.7016 33.85 54.0016 36.15 52.3016 38.45C50.7016 40.65 49.4016 42.5 48.4016 44C47.8016 45 47.5016 45.85 47.5016 46.55C47.6016 47.15 47.8516 47.2 48.2516 46.7C50.4516 43.8 53.0516 40.5 56.0516 36.8C59.1516 33 62.2516 29.25 65.3516 25.55C68.5516 21.75 71.4516 18.45 74.0516 15.65C76.7516 12.75 78.8016 10.8 80.2016 9.8C80.7016 9.4 81.6016 8.9 82.9016 8.3C84.3016 7.6 85.9516 7.24999 87.8516 7.24999C88.9516 7.24999 90.0516 7.4 91.1516 7.7C92.2516 7.99999 93.4516 8.54999 94.7516 9.34999C96.8516 10.65 97.9016 12.55 97.9016 15.05C97.9016 18.25 96.3516 22.35 93.2516 27.35C90.1516 32.35 86.5016 38.1 82.3016 44.6C84.3016 42 86.7516 39 89.6516 35.6C92.6516 32.1 95.7016 28.5 98.8016 24.8C102.002 21 105.002 17.5 107.802 14.3C110.702 11 113.102 8.3 115.002 6.2C117.002 4 118.202 2.75 118.602 2.44999C120.302 1.25 121.652 0.649999 122.652 0.649999C123.452 0.649999 124.402 0.899999 125.502 1.4C126.602 1.9 128.002 2.6 129.702 3.5C131.902 4.6 133.452 6 134.352 7.7C135.252 9.29999 135.702 11.1 135.702 13.1C135.702 16.1 135.002 19.2 133.602 22.4C132.202 25.5 130.852 28.25 129.552 30.65C128.552 32.35 127.052 35.25 125.052 39.35C123.152 43.45 121.052 48.2 118.752 53.6C116.452 59 114.202 64.6 112.002 70.4C109.902 76.2 108.152 81.75 106.752 87.05C105.352 92.25 104.652 96.7 104.652 100.4C104.652 101.7 104.752 102.9 104.952 104C105.152 105.1 105.502 106.05 106.002 106.85C104.702 108.15 103.002 108.8 100.902 108.8Z" fill="#8D1EE4"/>
<path d="M130.865 95.462C128.35 95.462 126.579 94.8973 125.552 93.768C124.577 92.5873 124.089 91.1243 124.089 89.379C124.089 87.531 124.423 85.5547 125.09 83.45C125.809 81.294 126.604 79.3177 127.477 77.521C128.401 75.673 129.12 74.2613 129.633 73.286C131.738 69.3847 134.15 66.5357 136.871 64.739C139.643 62.9423 142.697 62.044 146.034 62.044C147.215 62.044 148.601 62.0953 150.192 62.198C151.783 62.3007 153.4 62.352 155.043 62.352C155.864 62.352 156.66 62.3263 157.43 62.275C158.2 62.2237 158.944 62.198 159.663 62.198H159.971C160.844 62.198 161.28 62.352 161.28 62.66C161.28 62.8653 160.972 63.0963 160.356 63.353C159.689 63.6097 158.893 64.4823 157.969 65.971C157.045 67.4083 156.095 69.1537 155.12 71.207C154.145 73.2603 153.221 75.3393 152.348 77.444C151.886 78.6247 151.27 80.216 150.5 82.218C149.73 84.1687 149.165 86.1707 148.806 88.224C148.755 88.5833 148.703 88.917 148.652 89.225C148.652 89.4817 148.652 89.7383 148.652 89.995C148.652 91.2783 148.986 91.92 149.653 91.92C150.474 91.92 151.321 91.4837 152.194 90.611C153.067 89.7383 153.914 88.686 154.735 87.454C155.454 86.376 156.172 85.1697 156.891 83.835C157.61 82.5003 158.251 81.2683 158.816 80.139C159.381 78.9583 159.791 78.137 160.048 77.675C160.202 77.367 160.407 77.213 160.664 77.213C160.972 77.213 161.254 77.444 161.511 77.906C161.768 78.3167 161.793 78.7273 161.588 79.138C160.613 81.0373 159.56 83.065 158.431 85.221C157.302 87.377 156.07 89.3277 154.735 91.073C152.476 93.999 149.858 95.462 146.881 95.462C144.622 95.462 142.954 94.769 141.876 93.383C140.849 91.997 140.336 90.3287 140.336 88.378C140.336 87.5053 140.413 86.6583 140.567 85.837C140.002 86.761 139.309 87.9673 138.488 89.456C137.667 90.8933 136.717 92.2023 135.639 93.383C134.612 94.5637 133.457 95.231 132.174 95.385C131.969 95.385 131.763 95.385 131.558 95.385C131.353 95.4363 131.122 95.462 130.865 95.462ZM133.714 91.535C134.227 91.535 134.895 91.073 135.716 90.149C136.589 89.225 137.461 88.07 138.334 86.684C139.258 85.2467 140.054 83.8093 140.721 82.372C140.875 81.9613 141.234 81.0887 141.799 79.754C142.415 78.368 143.082 76.7767 143.801 74.98C144.571 73.132 145.341 71.284 146.111 69.436C146.881 67.588 147.548 65.971 148.113 64.585C148.164 64.431 148.19 64.2513 148.19 64.046C148.19 63.738 148.036 63.584 147.728 63.584C147.42 63.584 147.061 63.7123 146.65 63.969C146.239 64.1743 145.854 64.4053 145.495 64.662C144.828 65.1753 143.955 66.2533 142.877 67.896C141.85 69.4873 140.747 71.361 139.566 73.517C138.437 75.673 137.359 77.8803 136.332 80.139C135.305 82.3463 134.458 84.374 133.791 86.222C133.175 88.0187 132.867 89.379 132.867 90.303C132.867 91.1243 133.149 91.535 133.714 91.535ZM177.747 95.616C175.129 95.616 173.358 94.8973 172.434 93.46C171.51 92.0227 171.048 90.3543 171.048 88.455C171.048 87.069 171.202 85.683 171.51 84.297C171.818 82.911 172.151 81.679 172.511 80.601C172.87 79.523 173.127 78.7787 173.281 78.368C173.897 76.52 174.538 74.749 175.206 73.055C175.924 71.3097 176.463 70.1033 176.823 69.436C176.669 69.6927 176.104 70.437 175.129 71.669C174.153 72.901 172.998 74.441 171.664 76.289C170.38 78.0857 169.097 80.0107 167.814 82.064C166.53 84.066 165.452 86.0167 164.58 87.916C163.758 89.764 163.348 91.3553 163.348 92.69C163.348 93.614 163.553 94.2813 163.964 94.692C164.118 94.846 164.195 94.9743 164.195 95.077C164.195 95.3337 163.912 95.4107 163.348 95.308C162.167 95.1027 161.012 94.8973 159.883 94.692C158.753 94.4353 157.804 93.9477 157.034 93.229C156.315 92.459 155.956 91.2013 155.956 89.456C155.956 88.07 156.315 86.4017 157.034 84.451C157.752 82.449 158.599 80.3957 159.575 78.291C160.55 76.1863 161.397 74.2357 162.116 72.439C162.27 72.0283 162.526 71.4123 162.886 70.591C163.245 69.7183 163.604 68.82 163.964 67.896C164.374 66.9207 164.682 66.0737 164.888 65.355C165.093 64.585 165.144 64.0717 165.042 63.815C164.939 63.6097 164.888 63.4557 164.888 63.353C164.888 62.737 165.298 62.429 166.12 62.429C166.941 62.429 167.762 62.5573 168.584 62.814C169.456 63.0193 170.226 63.3787 170.894 63.892C171.612 64.4053 172.177 65.0213 172.588 65.74C172.998 66.4587 173.204 67.2543 173.204 68.127C173.204 68.6917 173.075 69.359 172.819 70.129C172.716 70.4883 172.485 70.976 172.126 71.592C171.818 72.1567 171.484 72.7727 171.125 73.44C170.765 74.1073 170.38 74.8003 169.97 75.519C169.61 76.2377 169.482 76.6227 169.585 76.674C170.868 74.4153 172.254 72.3107 173.743 70.36C175.283 68.358 176.669 66.6383 177.901 65.201C179.184 63.7637 180.031 62.7113 180.442 62.044C180.852 61.736 181.52 61.582 182.444 61.582C183.522 61.582 184.625 61.9157 185.755 62.583C186.884 63.2503 187.449 64.4567 187.449 66.202C187.449 67.6393 186.935 69.3847 185.909 71.438C183.701 75.6473 182.007 79.446 180.827 82.834C179.646 86.1707 179.056 88.6347 179.056 90.226C179.056 91.3553 179.364 91.92 179.98 91.92C180.698 91.92 181.52 91.458 182.444 90.534C183.368 89.61 184.24 88.5063 185.062 87.223C186.191 85.5803 187.218 83.835 188.142 81.987C189.117 80.139 189.784 78.8557 190.144 78.137C190.298 77.829 190.529 77.675 190.837 77.675C191.145 77.675 191.427 77.8547 191.684 78.214C191.992 78.522 192.043 78.8813 191.838 79.292C191.478 80.0107 190.939 81.0117 190.221 82.295C189.553 83.5783 188.783 84.9643 187.911 86.453C187.038 87.8903 186.088 89.2763 185.062 90.611C183.932 92.151 182.803 93.383 181.674 94.307C180.544 95.1797 179.235 95.616 177.747 95.616ZM193.728 95.462C191.213 95.462 189.442 94.8973 188.415 93.768C187.44 92.5873 186.952 91.1243 186.952 89.379C186.952 87.531 187.286 85.5547 187.953 83.45C188.672 81.294 189.468 79.3177 190.34 77.521C191.264 75.673 191.983 74.2613 192.496 73.286C194.601 69.3847 197.014 66.5357 199.734 64.739C202.506 62.9423 205.561 62.044 208.897 62.044C210.078 62.044 211.464 62.0953 213.055 62.198C214.647 62.3007 216.264 62.352 217.906 62.352C218.728 62.352 219.523 62.3263 220.293 62.275C221.063 62.2237 221.808 62.198 222.526 62.198H222.834C223.707 62.198 224.143 62.352 224.143 62.66C224.143 62.8653 223.835 63.0963 223.219 63.353C222.552 63.6097 221.756 64.4823 220.832 65.971C219.908 67.4083 218.959 69.1537 217.983 71.207C217.008 73.2603 216.084 75.3393 215.211 77.444C214.749 78.6247 214.133 80.216 213.363 82.218C212.593 84.1687 212.029 86.1707 211.669 88.224C211.618 88.5833 211.567 88.917 211.515 89.225C211.515 89.4817 211.515 89.7383 211.515 89.995C211.515 91.2783 211.849 91.92 212.516 91.92C213.338 91.92 214.185 91.4837 215.057 90.611C215.93 89.7383 216.777 88.686 217.598 87.454C218.317 86.376 219.036 85.1697 219.754 83.835C220.473 82.5003 221.115 81.2683 221.679 80.139C222.244 78.9583 222.655 78.137 222.911 77.675C223.065 77.367 223.271 77.213 223.527 77.213C223.835 77.213 224.118 77.444 224.374 77.906C224.631 78.3167 224.657 78.7273 224.451 79.138C223.476 81.0373 222.424 83.065 221.294 85.221C220.165 87.377 218.933 89.3277 217.598 91.073C215.34 93.999 212.722 95.462 209.744 95.462C207.486 95.462 205.817 94.769 204.739 93.383C203.713 91.997 203.199 90.3287 203.199 88.378C203.199 87.5053 203.276 86.6583 203.43 85.837C202.866 86.761 202.173 87.9673 201.351 89.456C200.53 90.8933 199.58 92.2023 198.502 93.383C197.476 94.5637 196.321 95.231 195.037 95.385C194.832 95.385 194.627 95.385 194.421 95.385C194.216 95.4363 193.985 95.462 193.728 95.462ZM196.577 91.535C197.091 91.535 197.758 91.073 198.579 90.149C199.452 89.225 200.325 88.07 201.197 86.684C202.121 85.2467 202.917 83.8093 203.584 82.372C203.738 81.9613 204.098 81.0887 204.662 79.754C205.278 78.368 205.946 76.7767 206.664 74.98C207.434 73.132 208.204 71.284 208.974 69.436C209.744 67.588 210.412 65.971 210.976 64.585C211.028 64.431 211.053 64.2513 211.053 64.046C211.053 63.738 210.899 63.584 210.591 63.584C210.283 63.584 209.924 63.7123 209.513 63.969C209.103 64.1743 208.718 64.4053 208.358 64.662C207.691 65.1753 206.818 66.2533 205.74 67.896C204.714 69.4873 203.61 71.361 202.429 73.517C201.3 75.673 200.222 77.8803 199.195 80.139C198.169 82.3463 197.322 84.374 196.654 86.222C196.038 88.0187 195.73 89.379 195.73 90.303C195.73 91.1243 196.013 91.535 196.577 91.535ZM229.445 95.539C226.314 95.539 223.721 94.615 221.668 92.767C219.615 90.919 218.588 88.3523 218.588 85.067C218.588 83.9377 218.716 82.757 218.973 81.525C219.23 80.293 219.64 79.2407 220.205 78.368C220.77 77.4953 221.514 77.059 222.438 77.059C223.003 77.059 223.413 77.2387 223.67 77.598C224.286 76.4173 224.953 75.2367 225.672 74.056C226.391 72.8753 227.109 71.669 227.828 70.437C228.649 69.1023 229.599 67.6393 230.677 66.048C231.806 64.4053 233.09 62.968 234.527 61.736C235.964 60.4527 237.53 59.734 239.224 59.58C239.429 59.5287 239.635 59.503 239.84 59.503C240.097 59.503 240.328 59.503 240.533 59.503C241.098 59.503 241.688 59.5287 242.304 59.58C242.92 59.6313 243.382 59.6827 243.69 59.734C243.793 59.7853 243.87 59.9393 243.921 60.196C243.972 60.4527 243.844 60.581 243.536 60.581C243.331 60.581 242.92 60.735 242.304 61.043C241.688 61.2997 241.329 61.9413 241.226 62.968C241.123 66.5613 240.892 70.1547 240.533 73.748C240.225 77.3413 239.737 80.3443 239.07 82.757C238.762 83.989 238.274 85.3237 237.607 86.761C236.94 88.1983 236.144 89.4817 235.22 90.611C234.296 91.7403 233.321 92.5103 232.294 92.921C233.321 92.921 234.399 92.613 235.528 91.997C236.709 91.3297 237.787 90.534 238.762 89.61C239.789 88.686 240.559 87.8647 241.072 87.146C242.201 85.5547 243.228 83.8863 244.152 82.141C245.127 80.3443 245.846 78.9583 246.308 77.983C246.462 77.7263 246.642 77.598 246.847 77.598C247.104 77.598 247.335 77.752 247.54 78.06C247.745 78.368 247.848 78.7017 247.848 79.061C247.848 79.1637 247.822 79.2663 247.771 79.369C247.771 79.4717 247.745 79.5743 247.694 79.677C246.77 81.525 245.743 83.3987 244.614 85.298C243.536 87.146 242.278 88.8657 240.841 90.457C239.404 91.997 237.761 93.229 235.913 94.153C234.065 95.077 231.909 95.539 229.445 95.539ZM224.44 90.688C225.005 90.688 225.569 90.5083 226.134 90.149C226.699 89.7897 227.161 89.225 227.52 88.455C228.29 86.761 228.983 84.8103 229.599 82.603C230.215 80.3957 230.754 78.214 231.216 76.058C231.678 73.8507 232.063 71.9 232.371 70.206C232.73 68.4607 232.987 67.203 233.141 66.433C232.371 67.357 231.421 68.666 230.292 70.36C229.214 72.054 228.162 73.748 227.135 75.442C226.16 77.136 225.415 78.4963 224.902 79.523C224.953 80.7037 224.491 81.756 223.516 82.68C222.541 83.604 221.694 84.5537 220.975 85.529V86.376C220.975 86.5813 220.975 86.838 220.975 87.146C221.026 87.454 221.078 87.7363 221.129 87.993C221.386 88.8143 221.822 89.4817 222.438 89.995C223.105 90.457 223.773 90.688 224.44 90.688ZM248.823 95.385C247.591 95.385 246.59 95.1027 245.82 94.538C245.101 93.9733 244.614 93.229 244.357 92.305C244.049 91.227 243.895 90.0207 243.895 88.686C243.895 86.992 244.1 85.221 244.511 83.373C244.973 81.4737 245.538 79.6513 246.205 77.906C246.41 77.3413 246.744 76.443 247.206 75.211C247.719 73.979 248.233 72.6443 248.746 71.207C249.259 69.7183 249.696 68.281 250.055 66.895C250.414 65.509 250.594 64.3797 250.594 63.507C250.594 62.9423 250.517 62.5573 250.363 62.352C250.106 61.9413 250.235 61.7617 250.748 61.813C251.159 61.8643 251.569 61.9413 251.98 62.044C252.442 62.0953 252.878 62.198 253.289 62.352C255.342 63.0193 256.754 63.9433 257.524 65.124C258.294 66.2533 258.679 67.3827 258.679 68.512C258.679 68.7173 258.679 68.9227 258.679 69.128C258.679 69.282 258.653 69.4617 258.602 69.667C258.499 70.2317 258.14 71.3097 257.524 72.901C256.908 74.4923 256.189 76.289 255.368 78.291C254.598 80.293 253.854 82.2437 253.135 84.143C252.468 86.0423 251.98 87.608 251.672 88.84C251.621 89.0453 251.569 89.225 251.518 89.379C251.518 89.4817 251.518 89.5843 251.518 89.687C251.518 90.303 251.723 90.611 252.134 90.611C252.442 90.611 252.878 90.38 253.443 89.918C254.213 89.1993 255.188 87.993 256.369 86.299C257.601 84.5537 259.013 82.1667 260.604 79.138C261.785 76.9307 262.709 74.749 263.376 72.593C264.095 70.437 264.454 68.5377 264.454 66.895C264.454 65.047 263.966 63.661 262.991 62.737C262.786 62.5317 262.683 62.429 262.683 62.429C262.683 62.3263 262.991 62.2493 263.607 62.198C263.864 62.198 264.12 62.198 264.377 62.198C264.685 62.1467 264.942 62.121 265.147 62.121C267.868 62.121 269.844 62.583 271.076 63.507C272.359 64.3797 273.001 65.432 273.001 66.664C273.001 66.9207 272.95 67.2543 272.847 67.665C272.488 68.9997 271.872 70.6423 270.999 72.593C270.178 74.5437 269.125 76.5713 267.842 78.676C266.969 80.1647 266.353 81.448 265.994 82.526C265.635 83.604 265.455 84.6307 265.455 85.606C265.455 87.5567 265.994 88.532 267.072 88.532C267.945 88.532 268.817 87.9673 269.69 86.838C270.306 86.1193 270.922 85.2467 271.538 84.22C272.205 83.1933 272.821 82.1667 273.386 81.14C273.951 80.062 274.413 79.1637 274.772 78.445C274.926 78.0857 275.208 77.906 275.619 77.906C275.927 77.906 276.209 78.06 276.466 78.368C276.723 78.6247 276.748 78.9583 276.543 79.369C276.081 80.2417 275.516 81.3453 274.849 82.68C274.233 83.9633 273.489 85.2467 272.616 86.53C271.795 87.762 270.871 88.763 269.844 89.533C268.766 90.3543 267.688 90.765 266.61 90.765C265.481 90.765 264.634 90.3287 264.069 89.456C263.504 88.5833 263.222 87.5823 263.222 86.453C263.222 86.2477 263.222 86.0423 263.222 85.837C263.222 85.6317 263.248 85.4263 263.299 85.221C261.092 87.993 258.73 90.38 256.215 92.382C253.7 94.384 251.236 95.385 248.823 95.385ZM279.704 95.616C277.856 95.616 276.187 95.1027 274.699 94.076C273.21 92.998 272.466 91.2527 272.466 88.84C272.466 87.2487 272.722 85.4007 273.236 83.296C273.8 81.1913 274.493 79.0353 275.315 76.828C276.136 74.5693 276.983 72.4903 277.856 70.591C278.78 68.6403 279.601 67.049 280.32 65.817C281.449 64.0203 282.707 62.9167 284.093 62.506C285.53 62.0953 287.275 61.89 289.329 61.89C290.817 61.89 292.049 62.0697 293.025 62.429C294 62.737 294.154 63.0963 293.487 63.507C292.511 64.1743 291.254 65.663 289.714 67.973C288.174 70.283 286.685 72.8753 285.248 75.75C284.837 76.5713 284.324 77.675 283.708 79.061C283.092 80.3957 282.476 81.833 281.86 83.373C281.295 84.8617 280.807 86.299 280.397 87.685C279.986 89.0197 279.781 90.1233 279.781 90.996C279.781 92.2793 280.371 92.921 281.552 92.921C282.784 92.921 284.17 92.3307 285.71 91.15C286.428 90.5853 287.096 89.9437 287.712 89.225C288.328 88.5063 288.892 87.7877 289.406 87.069C290.432 85.683 291.356 84.1943 292.178 82.603C293.05 80.9603 293.846 79.4203 294.565 77.983C294.719 77.675 294.924 77.521 295.181 77.521C295.54 77.521 295.848 77.7007 296.105 78.06C296.361 78.4193 296.387 78.8043 296.182 79.215C295.412 80.755 294.462 82.5773 293.333 84.682C292.203 86.7353 290.894 88.6347 289.406 90.38C288.122 91.8687 286.659 93.1263 285.017 94.153C283.425 95.1283 281.654 95.616 279.704 95.616ZM290.715 58.04C289.842 58.04 289.149 57.7577 288.636 57.193C288.122 56.577 287.866 55.7813 287.866 54.806C287.866 53.6253 288.174 52.5473 288.79 51.572C289.406 50.5967 290.176 49.801 291.1 49.185C292.024 48.569 292.973 48.261 293.949 48.261C294.821 48.261 295.514 48.569 296.028 49.185C296.541 49.7497 296.798 50.4683 296.798 51.341C296.798 52.4703 296.49 53.5483 295.874 54.575C295.258 55.6017 294.488 56.4487 293.564 57.116C292.64 57.732 291.69 58.04 290.715 58.04Z" fill="#A151F0"/>
</svg>
